<svg xmlns="http://www.w3.org/2000/svg" version="1.1" xmlns:xlink="http://www.w3.org/1999/xlink" xmlns:svgjs="http://svgjs.com/svgjs" width="1920" height="120" preserveAspectRatio="none" viewBox="0 0 1920 120"><g mask="url(&quot;#SvgjsMask1037&quot;)" fill="none"><rect width="1920" height="120" x="0" y="0" fill="rgba(23, 73, 64, 1)"></rect><g mask="url(&quot;#SvgjsMask1038&quot;)"><path d="M1547 63L1547 7" stroke-width="2.33" stroke="rgba(16, 117, 90, 1)"></path><path d="M1543.5 63 a3.5 3.5 0 1 0 7 0 a3.5 3.5 0 1 0 -7 0zM1543.5 7 a3.5 3.5 0 1 0 7 0 a3.5 3.5 0 1 0 -7 0z" fill="rgba(16, 117, 90, 1)"></path><path d="M1155 119L1113 77L889 77" stroke-width="2.33" stroke="rgba(16, 117, 90, 1)"></path><path d="M1151.5 119 a3.5 3.5 0 1 0 7 0 a3.5 3.5 0 1 0 -7 0zM885.5 77 a3.5 3.5 0 1 0 7 0 a3.5 3.5 0 1 0 -7 0z" fill="rgba(16, 117, 90, 1)"></path><path d="M805 77L805 7" stroke-width="2.33" stroke="rgba(16, 117, 90, 1)"></path><path d="M801.5 77 a3.5 3.5 0 1 0 7 0 a3.5 3.5 0 1 0 -7 0zM801.5 7 a3.5 3.5 0 1 0 7 0 a3.5 3.5 0 1 0 -7 0z" fill="rgba(16, 117, 90, 1)"></path><path d="M1001 119L1029 91L1113 91L1127 105L1127 119" stroke-width="2.33" stroke="rgba(16, 117, 90, 1)"></path><path d="M997.5 119 a3.5 3.5 0 1 0 7 0 a3.5 3.5 0 1 0 -7 0zM1123.5 119 a3.5 3.5 0 1 0 7 0 a3.5 3.5 0 1 0 -7 0z" fill="rgba(16, 117, 90, 1)"></path><path d="M1743 63L1883 63L1925 21L1925 7" stroke-width="2.33" stroke="rgba(16, 117, 90, 1)"></path><path d="M1739.5 63 a3.5 3.5 0 1 0 7 0 a3.5 3.5 0 1 0 -7 0zM1921.5 7 a3.5 3.5 0 1 0 7 0 a3.5 3.5 0 1 0 -7 0z" fill="rgba(16, 117, 90, 1)"></path><path d="M959 7L889 7L861 35L819 35" stroke-width="2.33" stroke="rgba(16, 117, 90, 1)"></path><path d="M955.5 7 a3.5 3.5 0 1 0 7 0 a3.5 3.5 0 1 0 -7 0zM815.5 35 a3.5 3.5 0 1 0 7 0 a3.5 3.5 0 1 0 -7 0z" fill="rgba(16, 117, 90, 1)"></path><path d="M1603 119L1337 119" stroke-width="2.33" stroke="rgba(16, 117, 90, 1)"></path><path d="M1599.5 119 a3.5 3.5 0 1 0 7 0 a3.5 3.5 0 1 0 -7 0zM1333.5 119 a3.5 3.5 0 1 0 7 0 a3.5 3.5 0 1 0 -7 0z" fill="rgba(16, 117, 90, 1)"></path><path d="M63 77L7 21L7 7" stroke-width="2.33" stroke="rgba(16, 117, 90, 1)"></path><path d="M59.5 77 a3.5 3.5 0 1 0 7 0 a3.5 3.5 0 1 0 -7 0zM3.5 7 a3.5 3.5 0 1 0 7 0 a3.5 3.5 0 1 0 -7 0z" fill="rgba(16, 117, 90, 1)"></path><path d="M791 63L791 7" stroke-width="2.33" stroke="rgba(16, 117, 90, 1)"></path><path d="M787.5 63 a3.5 3.5 0 1 0 7 0 a3.5 3.5 0 1 0 -7 0zM787.5 7 a3.5 3.5 0 1 0 7 0 a3.5 3.5 0 1 0 -7 0z" fill="rgba(16, 117, 90, 1)"></path><path d="M623 49L693 119L805 119L875 49L889 49" stroke-width="2.33" stroke="rgba(16, 117, 90, 1)"></path><path d="M619.5 49 a3.5 3.5 0 1 0 7 0 a3.5 3.5 0 1 0 -7 0zM885.5 49 a3.5 3.5 0 1 0 7 0 a3.5 3.5 0 1 0 -7 0z" fill="rgba(16, 117, 90, 1)"></path><path d="M567 63L623 7L637 7L735 105L805 105L833 77" stroke-width="2.33" stroke="rgba(16, 117, 90, 1)"></path><path d="M563.5 63 a3.5 3.5 0 1 0 7 0 a3.5 3.5 0 1 0 -7 0zM829.5 77 a3.5 3.5 0 1 0 7 0 a3.5 3.5 0 1 0 -7 0z" fill="rgba(16, 117, 90, 1)"></path><path d="M133 105L77 49L77 7" stroke-width="2.33" stroke="rgba(16, 117, 90, 1)"></path><path d="M129.5 105 a3.5 3.5 0 1 0 7 0 a3.5 3.5 0 1 0 -7 0zM73.5 7 a3.5 3.5 0 1 0 7 0 a3.5 3.5 0 1 0 -7 0z" fill="rgba(16, 117, 90, 1)"></path><path d="M987 7L945 49L945 63" stroke-width="2.33" stroke="rgba(16, 117, 90, 1)"></path><path d="M983.5 7 a3.5 3.5 0 1 0 7 0 a3.5 3.5 0 1 0 -7 0zM941.5 63 a3.5 3.5 0 1 0 7 0 a3.5 3.5 0 1 0 -7 0z" fill="rgba(16, 117, 90, 1)"></path><path d="M1827 91L1925 91" stroke-width="2.33" stroke="rgba(16, 117, 90, 1)"></path><path d="M1823.5 91 a3.5 3.5 0 1 0 7 0 a3.5 3.5 0 1 0 -7 0zM1921.5 91 a3.5 3.5 0 1 0 7 0 a3.5 3.5 0 1 0 -7 0z" fill="rgba(16, 117, 90, 1)"></path><path d="M1673 119L1561 7" stroke-width="2.33" stroke="rgba(16, 117, 90, 1)"></path><path d="M1669.5 119 a3.5 3.5 0 1 0 7 0 a3.5 3.5 0 1 0 -7 0zM1557.5 7 a3.5 3.5 0 1 0 7 0 a3.5 3.5 0 1 0 -7 0z" fill="rgba(16, 117, 90, 1)"></path><path d="M483 35L441 35L413 7L217 7" stroke-width="2.33" stroke="rgba(16, 117, 90, 1)"></path><path d="M479.5 35 a3.5 3.5 0 1 0 7 0 a3.5 3.5 0 1 0 -7 0zM213.5 7 a3.5 3.5 0 1 0 7 0 a3.5 3.5 0 1 0 -7 0z" fill="rgba(16, 117, 90, 1)"></path><path d="M1239 91L1323 7L1393 7L1491 105L1505 105" stroke-width="2.33" stroke="rgba(16, 117, 90, 1)"></path><path d="M1235.5 91 a3.5 3.5 0 1 0 7 0 a3.5 3.5 0 1 0 -7 0zM1501.5 105 a3.5 3.5 0 1 0 7 0 a3.5 3.5 0 1 0 -7 0z" fill="rgba(16, 117, 90, 1)"></path><path d="M1169 119L1323 119L1407 35" stroke-width="2.33" stroke="rgba(16, 117, 90, 1)"></path><path d="M1165.5 119 a3.5 3.5 0 1 0 7 0 a3.5 3.5 0 1 0 -7 0zM1403.5 35 a3.5 3.5 0 1 0 7 0 a3.5 3.5 0 1 0 -7 0z" fill="rgba(16, 117, 90, 1)"></path><path d="M1463 7L1435 35" stroke-width="2.33" stroke="rgba(16, 117, 90, 1)"></path><path d="M1459.5 7 a3.5 3.5 0 1 0 7 0 a3.5 3.5 0 1 0 -7 0zM1431.5 35 a3.5 3.5 0 1 0 7 0 a3.5 3.5 0 1 0 -7 0z" fill="rgba(16, 117, 90, 1)"></path><path d="M1659 119L1561 21" stroke-width="2.33" stroke="rgba(16, 117, 90, 1)"></path><path d="M1655.5 119 a3.5 3.5 0 1 0 7 0 a3.5 3.5 0 1 0 -7 0zM1557.5 21 a3.5 3.5 0 1 0 7 0 a3.5 3.5 0 1 0 -7 0z" fill="rgba(16, 117, 90, 1)"></path><path d="M1659 49L1645 63L1645 77L1673 105L1729 105L1757 77L1883 77" stroke-width="2.33" stroke="rgba(16, 117, 90, 1)"></path><path d="M1655.5 49 a3.5 3.5 0 1 0 7 0 a3.5 3.5 0 1 0 -7 0zM1879.5 77 a3.5 3.5 0 1 0 7 0 a3.5 3.5 0 1 0 -7 0z" fill="rgba(16, 117, 90, 1)"></path><path d="M1001 35L973 35L959 49L959 63" stroke-width="2.33" stroke="rgba(16, 117, 90, 1)"></path><path d="M997.5 35 a3.5 3.5 0 1 0 7 0 a3.5 3.5 0 1 0 -7 0zM955.5 63 a3.5 3.5 0 1 0 7 0 a3.5 3.5 0 1 0 -7 0z" fill="rgba(16, 117, 90, 1)"></path><path d="M483 119L539 119L637 21" stroke-width="2.33" stroke="rgba(16, 117, 90, 1)"></path><path d="M479.5 119 a3.5 3.5 0 1 0 7 0 a3.5 3.5 0 1 0 -7 0zM633.5 21 a3.5 3.5 0 1 0 7 0 a3.5 3.5 0 1 0 -7 0z" fill="rgba(16, 117, 90, 1)"></path><path d="M497 21L483 7L427 7" stroke-width="2.33" stroke="rgba(16, 117, 90, 1)"></path><path d="M493.5 21 a3.5 3.5 0 1 0 7 0 a3.5 3.5 0 1 0 -7 0zM423.5 7 a3.5 3.5 0 1 0 7 0 a3.5 3.5 0 1 0 -7 0z" fill="rgba(16, 117, 90, 1)"></path><path d="M1015 49L1001 63L973 63" stroke-width="2.33" stroke="rgba(16, 117, 90, 1)"></path><path d="M1011.5 49 a3.5 3.5 0 1 0 7 0 a3.5 3.5 0 1 0 -7 0zM969.5 63 a3.5 3.5 0 1 0 7 0 a3.5 3.5 0 1 0 -7 0z" fill="rgba(16, 117, 90, 1)"></path><path d="M1225 7L1225 105" stroke-width="2.33" stroke="rgba(16, 117, 90, 1)"></path><path d="M1221.5 7 a3.5 3.5 0 1 0 7 0 a3.5 3.5 0 1 0 -7 0zM1221.5 105 a3.5 3.5 0 1 0 7 0 a3.5 3.5 0 1 0 -7 0z" fill="rgba(16, 117, 90, 1)"></path><path d="M721 105L665 49L637 49" stroke-width="2.33" stroke="rgba(16, 117, 90, 1)"></path><path d="M717.5 105 a3.5 3.5 0 1 0 7 0 a3.5 3.5 0 1 0 -7 0zM633.5 49 a3.5 3.5 0 1 0 7 0 a3.5 3.5 0 1 0 -7 0z" fill="rgba(16, 117, 90, 1)"></path><path d="M1379 105L1421 63L1435 63L1477 105" stroke-width="2.33" stroke="rgba(16, 117, 90, 1)"></path><path d="M1375.5 105 a3.5 3.5 0 1 0 7 0 a3.5 3.5 0 1 0 -7 0zM1473.5 105 a3.5 3.5 0 1 0 7 0 a3.5 3.5 0 1 0 -7 0z" fill="rgba(16, 117, 90, 1)"></path><path d="M1897 63L1925 35" stroke-width="2.33" stroke="rgba(16, 117, 90, 1)"></path><path d="M1893.5 63 a3.5 3.5 0 1 0 7 0 a3.5 3.5 0 1 0 -7 0zM1921.5 35 a3.5 3.5 0 1 0 7 0 a3.5 3.5 0 1 0 -7 0z" fill="rgba(16, 117, 90, 1)"></path><path d="M1183 63L1183 105" stroke-width="2.33" stroke="rgba(16, 117, 90, 1)"></path><path d="M1179.5 63 a3.5 3.5 0 1 0 7 0 a3.5 3.5 0 1 0 -7 0zM1179.5 105 a3.5 3.5 0 1 0 7 0 a3.5 3.5 0 1 0 -7 0z" fill="rgba(16, 117, 90, 1)"></path><path d="M945 21L903 63L875 63L833 105L833 119" stroke-width="2.33" stroke="rgba(16, 117, 90, 1)"></path><path d="M941.5 21 a3.5 3.5 0 1 0 7 0 a3.5 3.5 0 1 0 -7 0zM829.5 119 a3.5 3.5 0 1 0 7 0 a3.5 3.5 0 1 0 -7 0z" fill="rgba(16, 117, 90, 1)"></path><path d="M1883 7L1785 7L1701 91L1673 91L1659 77L1659 63L1687 35" stroke-width="2.33" stroke="rgba(16, 117, 90, 1)"></path><path d="M1879.5 7 a3.5 3.5 0 1 0 7 0 a3.5 3.5 0 1 0 -7 0zM1683.5 35 a3.5 3.5 0 1 0 7 0 a3.5 3.5 0 1 0 -7 0z" fill="rgba(16, 117, 90, 1)"></path><path d="M1883 105L1869 119L1687 119" stroke-width="2.33" stroke="rgba(16, 117, 90, 1)"></path><path d="M1879.5 105 a3.5 3.5 0 1 0 7 0 a3.5 3.5 0 1 0 -7 0zM1683.5 119 a3.5 3.5 0 1 0 7 0 a3.5 3.5 0 1 0 -7 0z" fill="rgba(16, 117, 90, 1)"></path><path d="M497 105L539 105L567 77" stroke-width="2.33" stroke="rgba(16, 117, 90, 1)"></path><path d="M493.5 105 a3.5 3.5 0 1 0 7 0 a3.5 3.5 0 1 0 -7 0zM563.5 77 a3.5 3.5 0 1 0 7 0 a3.5 3.5 0 1 0 -7 0z" fill="rgba(16, 117, 90, 1)"></path><path d="M1379 21L1379 49L1323 105L1281 105L1267 91L1253 91L1239 105" stroke-width="2.33" stroke="rgba(16, 117, 90, 1)"></path><path d="M1375.5 21 a3.5 3.5 0 1 0 7 0 a3.5 3.5 0 1 0 -7 0zM1235.5 105 a3.5 3.5 0 1 0 7 0 a3.5 3.5 0 1 0 -7 0z" fill="rgba(16, 117, 90, 1)"></path><path d="M77 119L105 91" stroke-width="2.33" stroke="rgba(16, 117, 90, 1)"></path><path d="M73.5 119 a3.5 3.5 0 1 0 7 0 a3.5 3.5 0 1 0 -7 0zM101.5 91 a3.5 3.5 0 1 0 7 0 a3.5 3.5 0 1 0 -7 0z" fill="rgba(16, 117, 90, 1)"></path><path d="M861 21L819 21" stroke-width="2.33" stroke="rgba(16, 117, 90, 1)"></path><path d="M857.5 21 a3.5 3.5 0 1 0 7 0 a3.5 3.5 0 1 0 -7 0zM815.5 21 a3.5 3.5 0 1 0 7 0 a3.5 3.5 0 1 0 -7 0z" fill="rgba(16, 117, 90, 1)"></path><path d="M1799 35L1813 49L1855 49L1897 7L1911 7" stroke-width="2.33" stroke="rgba(16, 117, 90, 1)"></path><path d="M1795.5 35 a3.5 3.5 0 1 0 7 0 a3.5 3.5 0 1 0 -7 0zM1907.5 7 a3.5 3.5 0 1 0 7 0 a3.5 3.5 0 1 0 -7 0z" fill="rgba(16, 117, 90, 1)"></path><path d="M497 77L553 77" stroke-width="2.33" stroke="rgba(16, 117, 90, 1)"></path><path d="M493.5 77 a3.5 3.5 0 1 0 7 0 a3.5 3.5 0 1 0 -7 0zM549.5 77 a3.5 3.5 0 1 0 7 0 a3.5 3.5 0 1 0 -7 0z" fill="rgba(16, 117, 90, 1)"></path><path d="M7 119L7 35" stroke-width="2.33" stroke="rgba(16, 117, 90, 1)"></path><path d="M3.5 119 a3.5 3.5 0 1 0 7 0 a3.5 3.5 0 1 0 -7 0zM3.5 35 a3.5 3.5 0 1 0 7 0 a3.5 3.5 0 1 0 -7 0z" fill="rgba(16, 117, 90, 1)"></path><path d="M553 35L525 7L497 7" stroke-width="2.33" stroke="rgba(16, 117, 90, 1)"></path><path d="M549.5 35 a3.5 3.5 0 1 0 7 0 a3.5 3.5 0 1 0 -7 0zM493.5 7 a3.5 3.5 0 1 0 7 0 a3.5 3.5 0 1 0 -7 0z" fill="rgba(16, 117, 90, 1)"></path><path d="M161 105L161 7" stroke-width="2.33" stroke="rgba(16, 117, 90, 1)"></path><path d="M157.5 105 a3.5 3.5 0 1 0 7 0 a3.5 3.5 0 1 0 -7 0zM157.5 7 a3.5 3.5 0 1 0 7 0 a3.5 3.5 0 1 0 -7 0z" fill="rgba(16, 117, 90, 1)"></path><path d="M1687 7L1631 63" stroke-width="2.33" stroke="rgba(16, 117, 90, 1)"></path><path d="M1683.5 7 a3.5 3.5 0 1 0 7 0 a3.5 3.5 0 1 0 -7 0zM1627.5 63 a3.5 3.5 0 1 0 7 0 a3.5 3.5 0 1 0 -7 0z" fill="rgba(16, 117, 90, 1)"></path><path d="M105 7L119 21L147 21" stroke-width="2.33" stroke="rgba(16, 117, 90, 1)"></path><path d="M101.5 7 a3.5 3.5 0 1 0 7 0 a3.5 3.5 0 1 0 -7 0zM143.5 21 a3.5 3.5 0 1 0 7 0 a3.5 3.5 0 1 0 -7 0z" fill="rgba(16, 117, 90, 1)"></path><path d="M1715 35L1743 35L1771 7" stroke-width="2.33" stroke="rgba(16, 117, 90, 1)"></path><path d="M1711.5 35 a3.5 3.5 0 1 0 7 0 a3.5 3.5 0 1 0 -7 0zM1767.5 7 a3.5 3.5 0 1 0 7 0 a3.5 3.5 0 1 0 -7 0z" fill="rgba(16, 117, 90, 1)"></path><path d="M273 21L175 21" stroke-width="2.33" stroke="rgba(16, 117, 90, 1)"></path><path d="M269.5 21 a3.5 3.5 0 1 0 7 0 a3.5 3.5 0 1 0 -7 0zM171.5 21 a3.5 3.5 0 1 0 7 0 a3.5 3.5 0 1 0 -7 0z" fill="rgba(16, 117, 90, 1)"></path><path d="M483 91L539 91" stroke-width="2.33" stroke="rgba(16, 117, 90, 1)"></path><path d="M479.5 91 a3.5 3.5 0 1 0 7 0 a3.5 3.5 0 1 0 -7 0zM535.5 91 a3.5 3.5 0 1 0 7 0 a3.5 3.5 0 1 0 -7 0z" fill="rgba(16, 117, 90, 1)"></path><path d="M889 91L861 91L847 105L847 119" stroke-width="2.33" stroke="rgba(16, 117, 90, 1)"></path><path d="M885.5 91 a3.5 3.5 0 1 0 7 0 a3.5 3.5 0 1 0 -7 0zM843.5 119 a3.5 3.5 0 1 0 7 0 a3.5 3.5 0 1 0 -7 0z" fill="rgba(16, 117, 90, 1)"></path><path d="M1575 91L1589 105L1631 105L1645 119" stroke-width="2.33" stroke="rgba(16, 117, 90, 1)"></path><path d="M1571.5 91 a3.5 3.5 0 1 0 7 0 a3.5 3.5 0 1 0 -7 0zM1641.5 119 a3.5 3.5 0 1 0 7 0 a3.5 3.5 0 1 0 -7 0z" fill="rgba(16, 117, 90, 1)"></path><path d="M385 77L343 119L119 119" stroke-width="2.33" stroke="rgba(16, 117, 90, 1)"></path><path d="M381.5 77 a3.5 3.5 0 1 0 7 0 a3.5 3.5 0 1 0 -7 0zM115.5 119 a3.5 3.5 0 1 0 7 0 a3.5 3.5 0 1 0 -7 0z" fill="rgba(16, 117, 90, 1)"></path><path d="M763 49L735 77L721 77L651 7" stroke-width="2.33" stroke="rgba(16, 117, 90, 1)"></path><path d="M759.5 49 a3.5 3.5 0 1 0 7 0 a3.5 3.5 0 1 0 -7 0zM647.5 7 a3.5 3.5 0 1 0 7 0 a3.5 3.5 0 1 0 -7 0z" fill="rgba(16, 117, 90, 1)"></path><path d="M203 35L175 35" stroke-width="2.33" stroke="rgba(16, 117, 90, 1)"></path><path d="M199.5 35 a3.5 3.5 0 1 0 7 0 a3.5 3.5 0 1 0 -7 0zM171.5 35 a3.5 3.5 0 1 0 7 0 a3.5 3.5 0 1 0 -7 0z" fill="rgba(16, 117, 90, 1)"></path><path d="M1659 21L1617 21L1603 35" stroke-width="2.33" stroke="rgba(16, 117, 90, 1)"></path><path d="M1655.5 21 a3.5 3.5 0 1 0 7 0 a3.5 3.5 0 1 0 -7 0zM1599.5 35 a3.5 3.5 0 1 0 7 0 a3.5 3.5 0 1 0 -7 0z" fill="rgba(16, 117, 90, 1)"></path><path d="M21 91L21 49" stroke-width="2.33" stroke="rgba(16, 117, 90, 1)"></path><path d="M17.5 91 a3.5 3.5 0 1 0 7 0 a3.5 3.5 0 1 0 -7 0zM17.5 49 a3.5 3.5 0 1 0 7 0 a3.5 3.5 0 1 0 -7 0z" fill="rgba(16, 117, 90, 1)"></path><path d="M1505 35L1575 105" stroke-width="2.33" stroke="rgba(16, 117, 90, 1)"></path><path d="M1501.5 35 a3.5 3.5 0 1 0 7 0 a3.5 3.5 0 1 0 -7 0zM1571.5 105 a3.5 3.5 0 1 0 7 0 a3.5 3.5 0 1 0 -7 0z" fill="rgba(16, 117, 90, 1)"></path><path d="M1827 35L1841 21L1869 21" stroke-width="2.33" stroke="rgba(16, 117, 90, 1)"></path><path d="M1823.5 35 a3.5 3.5 0 1 0 7 0 a3.5 3.5 0 1 0 -7 0zM1865.5 21 a3.5 3.5 0 1 0 7 0 a3.5 3.5 0 1 0 -7 0z" fill="rgba(16, 117, 90, 1)"></path><path d="M497 63L441 119L357 119" stroke-width="2.33" stroke="rgba(16, 117, 90, 1)"></path><path d="M493.5 63 a3.5 3.5 0 1 0 7 0 a3.5 3.5 0 1 0 -7 0zM353.5 119 a3.5 3.5 0 1 0 7 0 a3.5 3.5 0 1 0 -7 0z" fill="rgba(16, 117, 90, 1)"></path><path d="M763 91L735 91" stroke-width="2.33" stroke="rgba(16, 117, 90, 1)"></path><path d="M759.5 91 a3.5 3.5 0 1 0 7 0 a3.5 3.5 0 1 0 -7 0zM731.5 91 a3.5 3.5 0 1 0 7 0 a3.5 3.5 0 1 0 -7 0z" fill="rgba(16, 117, 90, 1)"></path><path d="M833 7L875 7" stroke-width="2.33" stroke="rgba(16, 117, 90, 1)"></path><path d="M829.5 7 a3.5 3.5 0 1 0 7 0 a3.5 3.5 0 1 0 -7 0zM871.5 7 a3.5 3.5 0 1 0 7 0 a3.5 3.5 0 1 0 -7 0z" fill="rgba(16, 117, 90, 1)"></path><path d="M35 91L35 105L49 119L63 119L91 91L91 77L21 7" stroke-width="2.33" stroke="rgba(16, 117, 90, 1)"></path><path d="M31.5 91 a3.5 3.5 0 1 0 7 0 a3.5 3.5 0 1 0 -7 0zM17.5 7 a3.5 3.5 0 1 0 7 0 a3.5 3.5 0 1 0 -7 0z" fill="rgba(16, 117, 90, 1)"></path><path d="M497 49L497 35L511 21L525 21L553 49L553 63" stroke-width="2.33" stroke="rgba(16, 117, 90, 1)"></path><path d="M493.5 49 a3.5 3.5 0 1 0 7 0 a3.5 3.5 0 1 0 -7 0zM549.5 63 a3.5 3.5 0 1 0 7 0 a3.5 3.5 0 1 0 -7 0z" fill="rgba(16, 117, 90, 1)"></path><path d="M1491 35L1561 105" stroke-width="2.33" stroke="rgba(16, 117, 90, 1)"></path><path d="M1487.5 35 a3.5 3.5 0 1 0 7 0 a3.5 3.5 0 1 0 -7 0zM1557.5 105 a3.5 3.5 0 1 0 7 0 a3.5 3.5 0 1 0 -7 0z" fill="rgba(16, 117, 90, 1)"></path><path d="M1533 35L1519 35L1491 7L1477 7L1449 35L1449 49L1491 91L1533 91L1547 105" stroke-width="2.33" stroke="rgba(16, 117, 90, 1)"></path><path d="M1529.5 35 a3.5 3.5 0 1 0 7 0 a3.5 3.5 0 1 0 -7 0zM1543.5 105 a3.5 3.5 0 1 0 7 0 a3.5 3.5 0 1 0 -7 0z" fill="rgba(16, 117, 90, 1)"></path><path d="M315 77L371 77L413 35L427 35L455 63L455 91L441 105L371 105" stroke-width="2.33" stroke="rgba(16, 117, 90, 1)"></path><path d="M311.5 77 a3.5 3.5 0 1 0 7 0 a3.5 3.5 0 1 0 -7 0zM367.5 105 a3.5 3.5 0 1 0 7 0 a3.5 3.5 0 1 0 -7 0z" fill="rgba(16, 117, 90, 1)"></path><path d="M287 35L273 35L217 91L217 105" stroke-width="2.33" stroke="rgba(16, 117, 90, 1)"></path><path d="M283.5 35 a3.5 3.5 0 1 0 7 0 a3.5 3.5 0 1 0 -7 0zM213.5 105 a3.5 3.5 0 1 0 7 0 a3.5 3.5 0 1 0 -7 0z" fill="rgba(16, 117, 90, 1)"></path><path d="M735 35L735 63" stroke-width="2.33" stroke="rgba(16, 117, 90, 1)"></path><path d="M731.5 35 a3.5 3.5 0 1 0 7 0 a3.5 3.5 0 1 0 -7 0zM731.5 63 a3.5 3.5 0 1 0 7 0 a3.5 3.5 0 1 0 -7 0z" fill="rgba(16, 117, 90, 1)"></path><path d="M1197 21L1197 91L1211 105" stroke-width="2.33" stroke="rgba(16, 117, 90, 1)"></path><path d="M1193.5 21 a3.5 3.5 0 1 0 7 0 a3.5 3.5 0 1 0 -7 0zM1207.5 105 a3.5 3.5 0 1 0 7 0 a3.5 3.5 0 1 0 -7 0z" fill="rgba(16, 117, 90, 1)"></path><path d="M1029 119L1043 105L1113 105" stroke-width="2.33" stroke="rgba(16, 117, 90, 1)"></path><path d="M1025.5 119 a3.5 3.5 0 1 0 7 0 a3.5 3.5 0 1 0 -7 0zM1109.5 105 a3.5 3.5 0 1 0 7 0 a3.5 3.5 0 1 0 -7 0z" fill="rgba(16, 117, 90, 1)"></path><path d="M301 63L259 63L231 91L231 105" stroke-width="2.33" stroke="rgba(16, 117, 90, 1)"></path><path d="M297.5 63 a3.5 3.5 0 1 0 7 0 a3.5 3.5 0 1 0 -7 0zM227.5 105 a3.5 3.5 0 1 0 7 0 a3.5 3.5 0 1 0 -7 0z" fill="rgba(16, 117, 90, 1)"></path><path d="M357 63L315 21L287 21" stroke-width="2.33" stroke="rgba(16, 117, 90, 1)"></path><path d="M353.5 63 a3.5 3.5 0 1 0 7 0 a3.5 3.5 0 1 0 -7 0zM283.5 21 a3.5 3.5 0 1 0 7 0 a3.5 3.5 0 1 0 -7 0z" fill="rgba(16, 117, 90, 1)"></path><path d="M91 7L147 63L147 77L133 91" stroke-width="2.33" stroke="rgba(16, 117, 90, 1)"></path><path d="M87.5 7 a3.5 3.5 0 1 0 7 0 a3.5 3.5 0 1 0 -7 0zM129.5 91 a3.5 3.5 0 1 0 7 0 a3.5 3.5 0 1 0 -7 0z" fill="rgba(16, 117, 90, 1)"></path><path d="M343 21L413 21" stroke-width="2.33" stroke="rgba(16, 117, 90, 1)"></path><path d="M339.5 21 a3.5 3.5 0 1 0 7 0 a3.5 3.5 0 1 0 -7 0zM409.5 21 a3.5 3.5 0 1 0 7 0 a3.5 3.5 0 1 0 -7 0z" fill="rgba(16, 117, 90, 1)"></path><path d="M1281 35L1253 7L1239 7" stroke-width="2.33" stroke="rgba(16, 117, 90, 1)"></path><path d="M1277.5 35 a3.5 3.5 0 1 0 7 0 a3.5 3.5 0 1 0 -7 0zM1235.5 7 a3.5 3.5 0 1 0 7 0 a3.5 3.5 0 1 0 -7 0z" fill="rgba(16, 117, 90, 1)"></path><path d="M287 105L301 91L301 77" stroke-width="2.33" stroke="rgba(16, 117, 90, 1)"></path><path d="M283.5 105 a3.5 3.5 0 1 0 7 0 a3.5 3.5 0 1 0 -7 0zM297.5 77 a3.5 3.5 0 1 0 7 0 a3.5 3.5 0 1 0 -7 0z" fill="rgba(16, 117, 90, 1)"></path><path d="M1127 77L1155 105L1169 105" stroke-width="2.33" stroke="rgba(16, 117, 90, 1)"></path><path d="M1123.5 77 a3.5 3.5 0 1 0 7 0 a3.5 3.5 0 1 0 -7 0zM1165.5 105 a3.5 3.5 0 1 0 7 0 a3.5 3.5 0 1 0 -7 0z" fill="rgba(16, 117, 90, 1)"></path><path d="M399 77L427 49" stroke-width="2.33" stroke="rgba(16, 117, 90, 1)"></path><path d="M395.5 77 a3.5 3.5 0 1 0 7 0 a3.5 3.5 0 1 0 -7 0zM423.5 49 a3.5 3.5 0 1 0 7 0 a3.5 3.5 0 1 0 -7 0z" fill="rgba(16, 117, 90, 1)"></path><path d="M1141 35L1141 7" stroke-width="2.33" stroke="rgba(16, 117, 90, 1)"></path><path d="M1137.5 35 a3.5 3.5 0 1 0 7 0 a3.5 3.5 0 1 0 -7 0zM1137.5 7 a3.5 3.5 0 1 0 7 0 a3.5 3.5 0 1 0 -7 0z" fill="rgba(16, 117, 90, 1)"></path><path d="M1715 63L1715 49L1687 21" stroke-width="2.33" stroke="rgba(16, 117, 90, 1)"></path><path d="M1711.5 63 a3.5 3.5 0 1 0 7 0 a3.5 3.5 0 1 0 -7 0zM1683.5 21 a3.5 3.5 0 1 0 7 0 a3.5 3.5 0 1 0 -7 0z" fill="rgba(16, 117, 90, 1)"></path><path d="M1407 63L1365 105L1351 105" stroke-width="2.33" stroke="rgba(16, 117, 90, 1)"></path><path d="M1403.5 63 a3.5 3.5 0 1 0 7 0 a3.5 3.5 0 1 0 -7 0zM1347.5 105 a3.5 3.5 0 1 0 7 0 a3.5 3.5 0 1 0 -7 0z" fill="rgba(16, 117, 90, 1)"></path><path d="M1295 63L1323 91" stroke-width="2.33" stroke="rgba(16, 117, 90, 1)"></path><path d="M1291.5 63 a3.5 3.5 0 1 0 7 0 a3.5 3.5 0 1 0 -7 0zM1319.5 91 a3.5 3.5 0 1 0 7 0 a3.5 3.5 0 1 0 -7 0z" fill="rgba(16, 117, 90, 1)"></path><path d="M1057 35L1057 63" stroke-width="2.33" stroke="rgba(16, 117, 90, 1)"></path><path d="M1053.5 35 a3.5 3.5 0 1 0 7 0 a3.5 3.5 0 1 0 -7 0zM1053.5 63 a3.5 3.5 0 1 0 7 0 a3.5 3.5 0 1 0 -7 0z" fill="rgba(16, 117, 90, 1)"></path><path d="M1099 21L1071 49L1071 63" stroke-width="2.33" stroke="rgba(16, 117, 90, 1)"></path><path d="M1095.5 21 a3.5 3.5 0 1 0 7 0 a3.5 3.5 0 1 0 -7 0zM1067.5 63 a3.5 3.5 0 1 0 7 0 a3.5 3.5 0 1 0 -7 0z" fill="rgba(16, 117, 90, 1)"></path><path d="M1687 77L1687 49" stroke-width="2.33" stroke="rgba(16, 117, 90, 1)"></path><path d="M1683.5 77 a3.5 3.5 0 1 0 7 0 a3.5 3.5 0 1 0 -7 0zM1683.5 49 a3.5 3.5 0 1 0 7 0 a3.5 3.5 0 1 0 -7 0z" fill="rgba(16, 117, 90, 1)"></path><path d="M1015 7L1113 7" stroke-width="2.33" stroke="rgba(16, 117, 90, 1)"></path><path d="M1011.5 7 a3.5 3.5 0 1 0 7 0 a3.5 3.5 0 1 0 -7 0zM1109.5 7 a3.5 3.5 0 1 0 7 0 a3.5 3.5 0 1 0 -7 0z" fill="rgba(16, 117, 90, 1)"></path><path d="M763 21L763 35L777 49L777 77" stroke-width="2.33" stroke="rgba(16, 117, 90, 1)"></path><path d="M759.5 21 a3.5 3.5 0 1 0 7 0 a3.5 3.5 0 1 0 -7 0zM773.5 77 a3.5 3.5 0 1 0 7 0 a3.5 3.5 0 1 0 -7 0z" fill="rgba(16, 117, 90, 1)"></path><path d="M189 49L175 63L175 105" stroke-width="2.33" stroke="rgba(16, 117, 90, 1)"></path><path d="M185.5 49 a3.5 3.5 0 1 0 7 0 a3.5 3.5 0 1 0 -7 0zM171.5 105 a3.5 3.5 0 1 0 7 0 a3.5 3.5 0 1 0 -7 0z" fill="rgba(16, 117, 90, 1)"></path><path d="M665 7L721 63" stroke-width="2.33" stroke="rgba(16, 117, 90, 1)"></path><path d="M661.5 7 a3.5 3.5 0 1 0 7 0 a3.5 3.5 0 1 0 -7 0zM717.5 63 a3.5 3.5 0 1 0 7 0 a3.5 3.5 0 1 0 -7 0z" fill="rgba(16, 117, 90, 1)"></path><path d="M889 35L903 21L931 21" stroke-width="2.33" stroke="rgba(16, 117, 90, 1)"></path><path d="M885.5 35 a3.5 3.5 0 1 0 7 0 a3.5 3.5 0 1 0 -7 0zM927.5 21 a3.5 3.5 0 1 0 7 0 a3.5 3.5 0 1 0 -7 0z" fill="rgba(16, 117, 90, 1)"></path><path d="M1155 7L1155 91" stroke-width="2.33" stroke="rgba(16, 117, 90, 1)"></path><path d="M1151.5 7 a3.5 3.5 0 1 0 7 0 a3.5 3.5 0 1 0 -7 0zM1151.5 91 a3.5 3.5 0 1 0 7 0 a3.5 3.5 0 1 0 -7 0z" fill="rgba(16, 117, 90, 1)"></path><path d="M1813 21L1785 21L1757 49" stroke-width="2.33" stroke="rgba(16, 117, 90, 1)"></path><path d="M1809.5 21 a3.5 3.5 0 1 0 7 0 a3.5 3.5 0 1 0 -7 0zM1753.5 49 a3.5 3.5 0 1 0 7 0 a3.5 3.5 0 1 0 -7 0z" fill="rgba(16, 117, 90, 1)"></path><path d="M567 119L651 119" stroke-width="2.33" stroke="rgba(16, 117, 90, 1)"></path><path d="M563.5 119 a3.5 3.5 0 1 0 7 0 a3.5 3.5 0 1 0 -7 0zM647.5 119 a3.5 3.5 0 1 0 7 0 a3.5 3.5 0 1 0 -7 0z" fill="rgba(16, 117, 90, 1)"></path><path d="M1449 91L1435 77L1421 77L1393 105" stroke-width="2.33" stroke="rgba(16, 117, 90, 1)"></path><path d="M1445.5 91 a3.5 3.5 0 1 0 7 0 a3.5 3.5 0 1 0 -7 0zM1389.5 105 a3.5 3.5 0 1 0 7 0 a3.5 3.5 0 1 0 -7 0z" fill="rgba(16, 117, 90, 1)"></path><path d="M189 77L189 63L217 35L231 35" stroke-width="2.33" stroke="rgba(16, 117, 90, 1)"></path><path d="M185.5 77 a3.5 3.5 0 1 0 7 0 a3.5 3.5 0 1 0 -7 0zM227.5 35 a3.5 3.5 0 1 0 7 0 a3.5 3.5 0 1 0 -7 0z" fill="rgba(16, 117, 90, 1)"></path><path d="M903 119L987 119L1015 91" stroke-width="2.33" stroke="rgba(16, 117, 90, 1)"></path><path d="M899.5 119 a3.5 3.5 0 1 0 7 0 a3.5 3.5 0 1 0 -7 0zM1011.5 91 a3.5 3.5 0 1 0 7 0 a3.5 3.5 0 1 0 -7 0z" fill="rgba(16, 117, 90, 1)"></path><path d="M609 63L581 91L581 105" stroke-width="2.33" stroke="rgba(16, 117, 90, 1)"></path><path d="M605.5 63 a3.5 3.5 0 1 0 7 0 a3.5 3.5 0 1 0 -7 0zM577.5 105 a3.5 3.5 0 1 0 7 0 a3.5 3.5 0 1 0 -7 0z" fill="rgba(16, 117, 90, 1)"></path><path d="M483 63L469 49L455 49" stroke-width="2.33" stroke="rgba(16, 117, 90, 1)"></path><path d="M479.5 63 a3.5 3.5 0 1 0 7 0 a3.5 3.5 0 1 0 -7 0zM451.5 49 a3.5 3.5 0 1 0 7 0 a3.5 3.5 0 1 0 -7 0z" fill="rgba(16, 117, 90, 1)"></path><path d="M637 77L609 105L595 105" stroke-width="2.33" stroke="rgba(16, 117, 90, 1)"></path><path d="M633.5 77 a3.5 3.5 0 1 0 7 0 a3.5 3.5 0 1 0 -7 0zM591.5 105 a3.5 3.5 0 1 0 7 0 a3.5 3.5 0 1 0 -7 0z" fill="rgba(16, 117, 90, 1)"></path><path d="M665 77L679 91L693 91" stroke-width="2.33" stroke="rgba(16, 117, 90, 1)"></path><path d="M661.5 77 a3.5 3.5 0 1 0 7 0 a3.5 3.5 0 1 0 -7 0zM689.5 91 a3.5 3.5 0 1 0 7 0 a3.5 3.5 0 1 0 -7 0z" fill="rgba(16, 117, 90, 1)"></path><path d="M707 35L679 7" stroke-width="2.33" stroke="rgba(16, 117, 90, 1)"></path><path d="M703.5 35 a3.5 3.5 0 1 0 7 0 a3.5 3.5 0 1 0 -7 0zM675.5 7 a3.5 3.5 0 1 0 7 0 a3.5 3.5 0 1 0 -7 0z" fill="rgba(16, 117, 90, 1)"></path><path d="M1463 105L1449 105L1435 91L1421 91" stroke-width="2.33" stroke="rgba(16, 117, 90, 1)"></path><path d="M1459.5 105 a3.5 3.5 0 1 0 7 0 a3.5 3.5 0 1 0 -7 0zM1417.5 91 a3.5 3.5 0 1 0 7 0 a3.5 3.5 0 1 0 -7 0z" fill="rgba(16, 117, 90, 1)"></path><path d="M1813 105L1743 105" stroke-width="2.33" stroke="rgba(16, 117, 90, 1)"></path><path d="M1809.5 105 a3.5 3.5 0 1 0 7 0 a3.5 3.5 0 1 0 -7 0zM1739.5 105 a3.5 3.5 0 1 0 7 0 a3.5 3.5 0 1 0 -7 0z" fill="rgba(16, 117, 90, 1)"></path><path d="M721 35L749 7L777 7" stroke-width="2.33" stroke="rgba(16, 117, 90, 1)"></path><path d="M717.5 35 a3.5 3.5 0 1 0 7 0 a3.5 3.5 0 1 0 -7 0zM773.5 7 a3.5 3.5 0 1 0 7 0 a3.5 3.5 0 1 0 -7 0z" fill="rgba(16, 117, 90, 1)"></path><path d="M1603 7L1673 7" stroke-width="2.33" stroke="rgba(16, 117, 90, 1)"></path><path d="M1599.5 7 a3.5 3.5 0 1 0 7 0 a3.5 3.5 0 1 0 -7 0zM1669.5 7 a3.5 3.5 0 1 0 7 0 a3.5 3.5 0 1 0 -7 0z" fill="rgba(16, 117, 90, 1)"></path><path d="M1533 21L1519 7L1505 7" stroke-width="2.33" stroke="rgba(16, 117, 90, 1)"></path><path d="M1529.5 21 a3.5 3.5 0 1 0 7 0 a3.5 3.5 0 1 0 -7 0zM1501.5 7 a3.5 3.5 0 1 0 7 0 a3.5 3.5 0 1 0 -7 0z" fill="rgba(16, 117, 90, 1)"></path><path d="M1183 35L1183 49L1169 63L1169 77" stroke-width="2.33" stroke="rgba(16, 117, 90, 1)"></path><path d="M1179.5 35 a3.5 3.5 0 1 0 7 0 a3.5 3.5 0 1 0 -7 0zM1165.5 77 a3.5 3.5 0 1 0 7 0 a3.5 3.5 0 1 0 -7 0z" fill="rgba(16, 117, 90, 1)"></path><path d="M539 7L567 35" stroke-width="2.33" stroke="rgba(16, 117, 90, 1)"></path><path d="M535.5 7 a3.5 3.5 0 1 0 7 0 a3.5 3.5 0 1 0 -7 0zM563.5 35 a3.5 3.5 0 1 0 7 0 a3.5 3.5 0 1 0 -7 0z" fill="rgba(16, 117, 90, 1)"></path><path d="M1771 91L1813 91" stroke-width="2.33" stroke="rgba(16, 117, 90, 1)"></path><path d="M1767.5 91 a3.5 3.5 0 1 0 7 0 a3.5 3.5 0 1 0 -7 0zM1809.5 91 a3.5 3.5 0 1 0 7 0 a3.5 3.5 0 1 0 -7 0z" fill="rgba(16, 117, 90, 1)"></path><path d="M301 105L315 91L357 91" stroke-width="2.33" stroke="rgba(16, 117, 90, 1)"></path><path d="M297.5 105 a3.5 3.5 0 1 0 7 0 a3.5 3.5 0 1 0 -7 0zM353.5 91 a3.5 3.5 0 1 0 7 0 a3.5 3.5 0 1 0 -7 0z" fill="rgba(16, 117, 90, 1)"></path><path d="M1505 77L1505 63L1491 49" stroke-width="2.33" stroke="rgba(16, 117, 90, 1)"></path><path d="M1501.5 77 a3.5 3.5 0 1 0 7 0 a3.5 3.5 0 1 0 -7 0zM1487.5 49 a3.5 3.5 0 1 0 7 0 a3.5 3.5 0 1 0 -7 0z" fill="rgba(16, 117, 90, 1)"></path><path d="M119 105L105 105L91 119" stroke-width="2.33" stroke="rgba(16, 117, 90, 1)"></path><path d="M115.5 105 a3.5 3.5 0 1 0 7 0 a3.5 3.5 0 1 0 -7 0zM87.5 119 a3.5 3.5 0 1 0 7 0 a3.5 3.5 0 1 0 -7 0z" fill="rgba(16, 117, 90, 1)"></path><path d="M1575 7L1589 21L1603 21" stroke-width="2.33" stroke="rgba(16, 117, 90, 1)"></path><path d="M1571.5 7 a3.5 3.5 0 1 0 7 0 a3.5 3.5 0 1 0 -7 0zM1599.5 21 a3.5 3.5 0 1 0 7 0 a3.5 3.5 0 1 0 -7 0z" fill="rgba(16, 117, 90, 1)"></path><path d="M917 105L931 91L945 91L959 105L987 105L1001 91" stroke-width="2.33" stroke="rgba(16, 117, 90, 1)"></path><path d="M913.5 105 a3.5 3.5 0 1 0 7 0 a3.5 3.5 0 1 0 -7 0zM997.5 91 a3.5 3.5 0 1 0 7 0 a3.5 3.5 0 1 0 -7 0z" fill="rgba(16, 117, 90, 1)"></path><path d="M1715 7L1757 7" stroke-width="2.33" stroke="rgba(16, 117, 90, 1)"></path><path d="M1711.5 7 a3.5 3.5 0 1 0 7 0 a3.5 3.5 0 1 0 -7 0zM1753.5 7 a3.5 3.5 0 1 0 7 0 a3.5 3.5 0 1 0 -7 0z" fill="rgba(16, 117, 90, 1)"></path><path d="M917 91L889 119L875 119" stroke-width="2.33" stroke="rgba(16, 117, 90, 1)"></path><path d="M913.5 91 a3.5 3.5 0 1 0 7 0 a3.5 3.5 0 1 0 -7 0zM871.5 119 a3.5 3.5 0 1 0 7 0 a3.5 3.5 0 1 0 -7 0z" fill="rgba(16, 117, 90, 1)"></path><path d="M1071 119L1043 119" stroke-width="2.33" stroke="rgba(16, 117, 90, 1)"></path><path d="M1067.5 119 a3.5 3.5 0 1 0 7 0 a3.5 3.5 0 1 0 -7 0zM1039.5 119 a3.5 3.5 0 1 0 7 0 a3.5 3.5 0 1 0 -7 0z" fill="rgba(16, 117, 90, 1)"></path><path d="M203 7L175 7" stroke-width="2.33" stroke="rgba(16, 117, 90, 1)"></path><path d="M199.5 7 a3.5 3.5 0 1 0 7 0 a3.5 3.5 0 1 0 -7 0zM171.5 7 a3.5 3.5 0 1 0 7 0 a3.5 3.5 0 1 0 -7 0z" fill="rgba(16, 117, 90, 1)"></path><path d="M385 91L413 91" stroke-width="2.33" stroke="rgba(16, 117, 90, 1)"></path><path d="M381.5 91 a3.5 3.5 0 1 0 7 0 a3.5 3.5 0 1 0 -7 0zM409.5 91 a3.5 3.5 0 1 0 7 0 a3.5 3.5 0 1 0 -7 0z" fill="rgba(16, 117, 90, 1)"></path><path d="M1057 21L1015 63" stroke-width="2.33" stroke="rgba(16, 117, 90, 1)"></path><path d="M1053.5 21 a3.5 3.5 0 1 0 7 0 a3.5 3.5 0 1 0 -7 0zM1011.5 63 a3.5 3.5 0 1 0 7 0 a3.5 3.5 0 1 0 -7 0z" fill="rgba(16, 117, 90, 1)"></path><path d="M1309 91L1281 91" stroke-width="2.33" stroke="rgba(16, 117, 90, 1)"></path><path d="M1305.5 91 a3.5 3.5 0 1 0 7 0 a3.5 3.5 0 1 0 -7 0zM1277.5 91 a3.5 3.5 0 1 0 7 0 a3.5 3.5 0 1 0 -7 0z" fill="rgba(16, 117, 90, 1)"></path><path d="M1729 21L1701 21" stroke-width="2.33" stroke="rgba(16, 117, 90, 1)"></path><path d="M1725.5 21 a3.5 3.5 0 1 0 7 0 a3.5 3.5 0 1 0 -7 0zM1697.5 21 a3.5 3.5 0 1 0 7 0 a3.5 3.5 0 1 0 -7 0z" fill="rgba(16, 117, 90, 1)"></path><path d="M1099 35L1099 49L1085 63" stroke-width="2.33" stroke="rgba(16, 117, 90, 1)"></path><path d="M1095.5 35 a3.5 3.5 0 1 0 7 0 a3.5 3.5 0 1 0 -7 0zM1081.5 63 a3.5 3.5 0 1 0 7 0 a3.5 3.5 0 1 0 -7 0z" fill="rgba(16, 117, 90, 1)"></path><path d="M301 49L329 49L343 63" stroke-width="2.33" stroke="rgba(16, 117, 90, 1)"></path><path d="M297.5 49 a3.5 3.5 0 1 0 7 0 a3.5 3.5 0 1 0 -7 0zM339.5 63 a3.5 3.5 0 1 0 7 0 a3.5 3.5 0 1 0 -7 0z" fill="rgba(16, 117, 90, 1)"></path><path d="M1113 49L1113 35L1127 21" stroke-width="2.33" stroke="rgba(16, 117, 90, 1)"></path><path d="M1109.5 49 a3.5 3.5 0 1 0 7 0 a3.5 3.5 0 1 0 -7 0zM1123.5 21 a3.5 3.5 0 1 0 7 0 a3.5 3.5 0 1 0 -7 0z" fill="rgba(16, 117, 90, 1)"></path><path d="M833 49L819 63L819 77" stroke-width="2.33" stroke="rgba(16, 117, 90, 1)"></path><path d="M829.5 49 a3.5 3.5 0 1 0 7 0 a3.5 3.5 0 1 0 -7 0zM815.5 77 a3.5 3.5 0 1 0 7 0 a3.5 3.5 0 1 0 -7 0z" fill="rgba(16, 117, 90, 1)"></path><path d="M735 7L707 7" stroke-width="2.33" stroke="rgba(16, 117, 90, 1)"></path><path d="M731.5 7 a3.5 3.5 0 1 0 7 0 a3.5 3.5 0 1 0 -7 0zM703.5 7 a3.5 3.5 0 1 0 7 0 a3.5 3.5 0 1 0 -7 0z" fill="rgba(16, 117, 90, 1)"></path><path d="M1183 7L1211 7" stroke-width="2.33" stroke="rgba(16, 117, 90, 1)"></path><path d="M1179.5 7 a3.5 3.5 0 1 0 7 0 a3.5 3.5 0 1 0 -7 0zM1207.5 7 a3.5 3.5 0 1 0 7 0 a3.5 3.5 0 1 0 -7 0z" fill="rgba(16, 117, 90, 1)"></path></g></g><defs><mask id="SvgjsMask1037"><rect width="1920" height="120" fill="#ffffff"></rect></mask><mask id="SvgjsMask1038"><rect width="1920" height="120" fill="white"></rect><path d="M1545.25 63 a1.75 1.75 0 1 0 3.5 0 a1.75 1.75 0 1 0 -3.5 0zM1545.25 7 a1.75 1.75 0 1 0 3.5 0 a1.75 1.75 0 1 0 -3.5 0z" fill="black"></path><path d="M1153.25 119 a1.75 1.75 0 1 0 3.5 0 a1.75 1.75 0 1 0 -3.5 0zM887.25 77 a1.75 1.75 0 1 0 3.5 0 a1.75 1.75 0 1 0 -3.5 0z" fill="black"></path><path d="M803.25 77 a1.75 1.75 0 1 0 3.5 0 a1.75 1.75 0 1 0 -3.5 0zM803.25 7 a1.75 1.75 0 1 0 3.5 0 a1.75 1.75 0 1 0 -3.5 0z" fill="black"></path><path d="M999.25 119 a1.75 1.75 0 1 0 3.5 0 a1.75 1.75 0 1 0 -3.5 0zM1125.25 119 a1.75 1.75 0 1 0 3.5 0 a1.75 1.75 0 1 0 -3.5 0z" fill="black"></path><path d="M1741.25 63 a1.75 1.75 0 1 0 3.5 0 a1.75 1.75 0 1 0 -3.5 0zM1923.25 7 a1.75 1.75 0 1 0 3.5 0 a1.75 1.75 0 1 0 -3.5 0z" fill="black"></path><path d="M957.25 7 a1.75 1.75 0 1 0 3.5 0 a1.75 1.75 0 1 0 -3.5 0zM817.25 35 a1.75 1.75 0 1 0 3.5 0 a1.75 1.75 0 1 0 -3.5 0z" fill="black"></path><path d="M1601.25 119 a1.75 1.75 0 1 0 3.5 0 a1.75 1.75 0 1 0 -3.5 0zM1335.25 119 a1.75 1.75 0 1 0 3.5 0 a1.75 1.75 0 1 0 -3.5 0z" fill="black"></path><path d="M61.25 77 a1.75 1.75 0 1 0 3.5 0 a1.75 1.75 0 1 0 -3.5 0zM5.25 7 a1.75 1.75 0 1 0 3.5 0 a1.75 1.75 0 1 0 -3.5 0z" fill="black"></path><path d="M789.25 63 a1.75 1.75 0 1 0 3.5 0 a1.75 1.75 0 1 0 -3.5 0zM789.25 7 a1.75 1.75 0 1 0 3.5 0 a1.75 1.75 0 1 0 -3.5 0z" fill="black"></path><path d="M621.25 49 a1.75 1.75 0 1 0 3.5 0 a1.75 1.75 0 1 0 -3.5 0zM887.25 49 a1.75 1.75 0 1 0 3.5 0 a1.75 1.75 0 1 0 -3.5 0z" fill="black"></path><path d="M565.25 63 a1.75 1.75 0 1 0 3.5 0 a1.75 1.75 0 1 0 -3.5 0zM831.25 77 a1.75 1.75 0 1 0 3.5 0 a1.75 1.75 0 1 0 -3.5 0z" fill="black"></path><path d="M131.25 105 a1.75 1.75 0 1 0 3.5 0 a1.75 1.75 0 1 0 -3.5 0zM75.25 7 a1.75 1.75 0 1 0 3.5 0 a1.75 1.75 0 1 0 -3.5 0z" fill="black"></path><path d="M985.25 7 a1.75 1.75 0 1 0 3.5 0 a1.75 1.75 0 1 0 -3.5 0zM943.25 63 a1.75 1.75 0 1 0 3.5 0 a1.75 1.75 0 1 0 -3.5 0z" fill="black"></path><path d="M1825.25 91 a1.75 1.75 0 1 0 3.5 0 a1.75 1.75 0 1 0 -3.5 0zM1923.25 91 a1.75 1.75 0 1 0 3.5 0 a1.75 1.75 0 1 0 -3.5 0z" fill="black"></path><path d="M1671.25 119 a1.75 1.75 0 1 0 3.5 0 a1.75 1.75 0 1 0 -3.5 0zM1559.25 7 a1.75 1.75 0 1 0 3.5 0 a1.75 1.75 0 1 0 -3.5 0z" fill="black"></path><path d="M481.25 35 a1.75 1.75 0 1 0 3.5 0 a1.75 1.75 0 1 0 -3.5 0zM215.25 7 a1.75 1.75 0 1 0 3.5 0 a1.75 1.75 0 1 0 -3.5 0z" fill="black"></path><path d="M1237.25 91 a1.75 1.75 0 1 0 3.5 0 a1.75 1.75 0 1 0 -3.5 0zM1503.25 105 a1.75 1.75 0 1 0 3.5 0 a1.75 1.75 0 1 0 -3.5 0z" fill="black"></path><path d="M1167.25 119 a1.75 1.75 0 1 0 3.5 0 a1.75 1.75 0 1 0 -3.5 0zM1405.25 35 a1.75 1.75 0 1 0 3.5 0 a1.75 1.75 0 1 0 -3.5 0z" fill="black"></path><path d="M1461.25 7 a1.75 1.75 0 1 0 3.5 0 a1.75 1.75 0 1 0 -3.5 0zM1433.25 35 a1.75 1.75 0 1 0 3.5 0 a1.75 1.75 0 1 0 -3.5 0z" fill="black"></path><path d="M1657.25 119 a1.75 1.75 0 1 0 3.5 0 a1.75 1.75 0 1 0 -3.5 0zM1559.25 21 a1.75 1.75 0 1 0 3.5 0 a1.75 1.75 0 1 0 -3.5 0z" fill="black"></path><path d="M1657.25 49 a1.75 1.75 0 1 0 3.5 0 a1.75 1.75 0 1 0 -3.5 0zM1881.25 77 a1.75 1.75 0 1 0 3.5 0 a1.75 1.75 0 1 0 -3.5 0z" fill="black"></path><path d="M999.25 35 a1.75 1.75 0 1 0 3.5 0 a1.75 1.75 0 1 0 -3.5 0zM957.25 63 a1.75 1.75 0 1 0 3.5 0 a1.75 1.75 0 1 0 -3.5 0z" fill="black"></path><path d="M481.25 119 a1.75 1.75 0 1 0 3.5 0 a1.75 1.75 0 1 0 -3.5 0zM635.25 21 a1.75 1.75 0 1 0 3.5 0 a1.75 1.75 0 1 0 -3.5 0z" fill="black"></path><path d="M495.25 21 a1.75 1.75 0 1 0 3.5 0 a1.75 1.75 0 1 0 -3.5 0zM425.25 7 a1.75 1.75 0 1 0 3.5 0 a1.75 1.75 0 1 0 -3.5 0z" fill="black"></path><path d="M1013.25 49 a1.75 1.75 0 1 0 3.5 0 a1.75 1.75 0 1 0 -3.5 0zM971.25 63 a1.75 1.75 0 1 0 3.5 0 a1.75 1.75 0 1 0 -3.5 0z" fill="black"></path><path d="M1223.25 7 a1.75 1.75 0 1 0 3.5 0 a1.75 1.75 0 1 0 -3.5 0zM1223.25 105 a1.75 1.75 0 1 0 3.5 0 a1.75 1.75 0 1 0 -3.5 0z" fill="black"></path><path d="M719.25 105 a1.75 1.75 0 1 0 3.5 0 a1.75 1.75 0 1 0 -3.5 0zM635.25 49 a1.75 1.75 0 1 0 3.5 0 a1.75 1.75 0 1 0 -3.5 0z" fill="black"></path><path d="M1377.25 105 a1.75 1.75 0 1 0 3.5 0 a1.75 1.75 0 1 0 -3.5 0zM1475.25 105 a1.75 1.75 0 1 0 3.5 0 a1.75 1.75 0 1 0 -3.5 0z" fill="black"></path><path d="M1895.25 63 a1.75 1.75 0 1 0 3.5 0 a1.75 1.75 0 1 0 -3.5 0zM1923.25 35 a1.75 1.75 0 1 0 3.5 0 a1.75 1.75 0 1 0 -3.5 0z" fill="black"></path><path d="M1181.25 63 a1.75 1.75 0 1 0 3.5 0 a1.75 1.75 0 1 0 -3.5 0zM1181.25 105 a1.75 1.75 0 1 0 3.5 0 a1.75 1.75 0 1 0 -3.5 0z" fill="black"></path><path d="M943.25 21 a1.75 1.75 0 1 0 3.5 0 a1.75 1.75 0 1 0 -3.5 0zM831.25 119 a1.75 1.75 0 1 0 3.5 0 a1.75 1.75 0 1 0 -3.5 0z" fill="black"></path><path d="M1881.25 7 a1.75 1.75 0 1 0 3.5 0 a1.75 1.75 0 1 0 -3.5 0zM1685.25 35 a1.75 1.75 0 1 0 3.5 0 a1.75 1.75 0 1 0 -3.5 0z" fill="black"></path><path d="M1881.25 105 a1.75 1.75 0 1 0 3.5 0 a1.75 1.75 0 1 0 -3.5 0zM1685.25 119 a1.75 1.75 0 1 0 3.5 0 a1.75 1.75 0 1 0 -3.5 0z" fill="black"></path><path d="M495.25 105 a1.75 1.75 0 1 0 3.5 0 a1.75 1.75 0 1 0 -3.5 0zM565.25 77 a1.75 1.75 0 1 0 3.5 0 a1.75 1.75 0 1 0 -3.5 0z" fill="black"></path><path d="M1377.25 21 a1.75 1.75 0 1 0 3.5 0 a1.75 1.75 0 1 0 -3.5 0zM1237.25 105 a1.75 1.75 0 1 0 3.5 0 a1.75 1.75 0 1 0 -3.5 0z" fill="black"></path><path d="M75.25 119 a1.75 1.75 0 1 0 3.5 0 a1.75 1.75 0 1 0 -3.5 0zM103.25 91 a1.75 1.75 0 1 0 3.5 0 a1.75 1.75 0 1 0 -3.5 0z" fill="black"></path><path d="M859.25 21 a1.75 1.75 0 1 0 3.5 0 a1.75 1.75 0 1 0 -3.5 0zM817.25 21 a1.75 1.75 0 1 0 3.5 0 a1.75 1.75 0 1 0 -3.5 0z" fill="black"></path><path d="M1797.25 35 a1.75 1.75 0 1 0 3.5 0 a1.75 1.75 0 1 0 -3.5 0zM1909.25 7 a1.75 1.75 0 1 0 3.5 0 a1.75 1.75 0 1 0 -3.5 0z" fill="black"></path><path d="M495.25 77 a1.75 1.75 0 1 0 3.5 0 a1.75 1.75 0 1 0 -3.5 0zM551.25 77 a1.75 1.75 0 1 0 3.5 0 a1.75 1.75 0 1 0 -3.5 0z" fill="black"></path><path d="M5.25 119 a1.75 1.75 0 1 0 3.5 0 a1.75 1.75 0 1 0 -3.5 0zM5.25 35 a1.75 1.75 0 1 0 3.5 0 a1.75 1.75 0 1 0 -3.5 0z" fill="black"></path><path d="M551.25 35 a1.75 1.75 0 1 0 3.5 0 a1.75 1.75 0 1 0 -3.5 0zM495.25 7 a1.75 1.75 0 1 0 3.5 0 a1.75 1.75 0 1 0 -3.5 0z" fill="black"></path><path d="M159.25 105 a1.75 1.75 0 1 0 3.5 0 a1.75 1.75 0 1 0 -3.5 0zM159.25 7 a1.75 1.75 0 1 0 3.5 0 a1.75 1.75 0 1 0 -3.5 0z" fill="black"></path><path d="M1685.25 7 a1.75 1.75 0 1 0 3.5 0 a1.75 1.75 0 1 0 -3.5 0zM1629.25 63 a1.75 1.75 0 1 0 3.5 0 a1.75 1.75 0 1 0 -3.5 0z" fill="black"></path><path d="M103.25 7 a1.75 1.75 0 1 0 3.5 0 a1.75 1.75 0 1 0 -3.5 0zM145.25 21 a1.75 1.75 0 1 0 3.5 0 a1.75 1.75 0 1 0 -3.5 0z" fill="black"></path><path d="M1713.25 35 a1.75 1.75 0 1 0 3.5 0 a1.75 1.75 0 1 0 -3.5 0zM1769.25 7 a1.75 1.75 0 1 0 3.5 0 a1.75 1.75 0 1 0 -3.5 0z" fill="black"></path><path d="M271.25 21 a1.75 1.75 0 1 0 3.5 0 a1.75 1.75 0 1 0 -3.5 0zM173.25 21 a1.75 1.75 0 1 0 3.5 0 a1.75 1.75 0 1 0 -3.5 0z" fill="black"></path><path d="M481.25 91 a1.75 1.75 0 1 0 3.5 0 a1.75 1.75 0 1 0 -3.5 0zM537.25 91 a1.75 1.75 0 1 0 3.5 0 a1.75 1.75 0 1 0 -3.5 0z" fill="black"></path><path d="M887.25 91 a1.75 1.75 0 1 0 3.5 0 a1.75 1.75 0 1 0 -3.5 0zM845.25 119 a1.75 1.75 0 1 0 3.5 0 a1.75 1.75 0 1 0 -3.5 0z" fill="black"></path><path d="M1573.25 91 a1.75 1.75 0 1 0 3.5 0 a1.75 1.75 0 1 0 -3.5 0zM1643.25 119 a1.75 1.75 0 1 0 3.5 0 a1.75 1.75 0 1 0 -3.5 0z" fill="black"></path><path d="M383.25 77 a1.75 1.75 0 1 0 3.5 0 a1.75 1.75 0 1 0 -3.5 0zM117.25 119 a1.75 1.75 0 1 0 3.5 0 a1.75 1.75 0 1 0 -3.5 0z" fill="black"></path><path d="M761.25 49 a1.75 1.75 0 1 0 3.5 0 a1.75 1.75 0 1 0 -3.5 0zM649.25 7 a1.75 1.75 0 1 0 3.5 0 a1.75 1.75 0 1 0 -3.5 0z" fill="black"></path><path d="M201.25 35 a1.75 1.75 0 1 0 3.5 0 a1.75 1.75 0 1 0 -3.5 0zM173.25 35 a1.75 1.75 0 1 0 3.5 0 a1.75 1.75 0 1 0 -3.5 0z" fill="black"></path><path d="M1657.25 21 a1.75 1.75 0 1 0 3.5 0 a1.75 1.75 0 1 0 -3.5 0zM1601.25 35 a1.75 1.75 0 1 0 3.5 0 a1.75 1.75 0 1 0 -3.5 0z" fill="black"></path><path d="M19.25 91 a1.75 1.75 0 1 0 3.5 0 a1.75 1.75 0 1 0 -3.5 0zM19.25 49 a1.75 1.75 0 1 0 3.5 0 a1.75 1.75 0 1 0 -3.5 0z" fill="black"></path><path d="M1503.25 35 a1.75 1.75 0 1 0 3.5 0 a1.75 1.75 0 1 0 -3.5 0zM1573.25 105 a1.75 1.75 0 1 0 3.5 0 a1.75 1.75 0 1 0 -3.5 0z" fill="black"></path><path d="M1825.25 35 a1.75 1.75 0 1 0 3.5 0 a1.75 1.75 0 1 0 -3.5 0zM1867.25 21 a1.75 1.75 0 1 0 3.5 0 a1.75 1.75 0 1 0 -3.5 0z" fill="black"></path><path d="M495.25 63 a1.75 1.75 0 1 0 3.5 0 a1.75 1.75 0 1 0 -3.5 0zM355.25 119 a1.75 1.75 0 1 0 3.5 0 a1.75 1.75 0 1 0 -3.5 0z" fill="black"></path><path d="M761.25 91 a1.75 1.75 0 1 0 3.5 0 a1.75 1.75 0 1 0 -3.5 0zM733.25 91 a1.75 1.75 0 1 0 3.5 0 a1.75 1.75 0 1 0 -3.5 0z" fill="black"></path><path d="M831.25 7 a1.75 1.75 0 1 0 3.5 0 a1.75 1.75 0 1 0 -3.5 0zM873.25 7 a1.75 1.75 0 1 0 3.5 0 a1.75 1.75 0 1 0 -3.5 0z" fill="black"></path><path d="M33.25 91 a1.75 1.75 0 1 0 3.5 0 a1.75 1.75 0 1 0 -3.5 0zM19.25 7 a1.75 1.75 0 1 0 3.5 0 a1.75 1.75 0 1 0 -3.5 0z" fill="black"></path><path d="M495.25 49 a1.75 1.75 0 1 0 3.5 0 a1.75 1.75 0 1 0 -3.5 0zM551.25 63 a1.75 1.75 0 1 0 3.5 0 a1.75 1.75 0 1 0 -3.5 0z" fill="black"></path><path d="M1489.25 35 a1.75 1.75 0 1 0 3.5 0 a1.75 1.75 0 1 0 -3.5 0zM1559.25 105 a1.75 1.75 0 1 0 3.5 0 a1.75 1.75 0 1 0 -3.5 0z" fill="black"></path><path d="M1531.25 35 a1.75 1.75 0 1 0 3.5 0 a1.75 1.75 0 1 0 -3.5 0zM1545.25 105 a1.75 1.75 0 1 0 3.5 0 a1.75 1.75 0 1 0 -3.5 0z" fill="black"></path><path d="M313.25 77 a1.75 1.75 0 1 0 3.5 0 a1.75 1.75 0 1 0 -3.5 0zM369.25 105 a1.75 1.75 0 1 0 3.5 0 a1.75 1.75 0 1 0 -3.5 0z" fill="black"></path><path d="M285.25 35 a1.75 1.75 0 1 0 3.5 0 a1.75 1.75 0 1 0 -3.5 0zM215.25 105 a1.75 1.75 0 1 0 3.5 0 a1.75 1.75 0 1 0 -3.5 0z" fill="black"></path><path d="M733.25 35 a1.75 1.75 0 1 0 3.5 0 a1.75 1.75 0 1 0 -3.5 0zM733.25 63 a1.75 1.75 0 1 0 3.5 0 a1.75 1.75 0 1 0 -3.5 0z" fill="black"></path><path d="M1195.25 21 a1.75 1.75 0 1 0 3.5 0 a1.75 1.75 0 1 0 -3.5 0zM1209.25 105 a1.75 1.75 0 1 0 3.5 0 a1.75 1.75 0 1 0 -3.5 0z" fill="black"></path><path d="M1027.25 119 a1.75 1.75 0 1 0 3.5 0 a1.75 1.75 0 1 0 -3.5 0zM1111.25 105 a1.75 1.75 0 1 0 3.5 0 a1.75 1.75 0 1 0 -3.5 0z" fill="black"></path><path d="M299.25 63 a1.75 1.75 0 1 0 3.5 0 a1.75 1.75 0 1 0 -3.5 0zM229.25 105 a1.75 1.75 0 1 0 3.5 0 a1.75 1.75 0 1 0 -3.5 0z" fill="black"></path><path d="M355.25 63 a1.75 1.75 0 1 0 3.5 0 a1.75 1.75 0 1 0 -3.5 0zM285.25 21 a1.75 1.75 0 1 0 3.5 0 a1.75 1.75 0 1 0 -3.5 0z" fill="black"></path><path d="M89.25 7 a1.75 1.75 0 1 0 3.5 0 a1.75 1.75 0 1 0 -3.5 0zM131.25 91 a1.75 1.75 0 1 0 3.5 0 a1.75 1.75 0 1 0 -3.5 0z" fill="black"></path><path d="M341.25 21 a1.75 1.75 0 1 0 3.5 0 a1.75 1.75 0 1 0 -3.5 0zM411.25 21 a1.75 1.75 0 1 0 3.5 0 a1.75 1.75 0 1 0 -3.5 0z" fill="black"></path><path d="M1279.25 35 a1.75 1.75 0 1 0 3.5 0 a1.75 1.75 0 1 0 -3.5 0zM1237.25 7 a1.75 1.75 0 1 0 3.5 0 a1.75 1.75 0 1 0 -3.5 0z" fill="black"></path><path d="M285.25 105 a1.75 1.75 0 1 0 3.5 0 a1.75 1.75 0 1 0 -3.5 0zM299.25 77 a1.75 1.75 0 1 0 3.5 0 a1.75 1.75 0 1 0 -3.5 0z" fill="black"></path><path d="M1125.25 77 a1.75 1.75 0 1 0 3.5 0 a1.75 1.75 0 1 0 -3.5 0zM1167.25 105 a1.75 1.75 0 1 0 3.5 0 a1.75 1.75 0 1 0 -3.5 0z" fill="black"></path><path d="M397.25 77 a1.75 1.75 0 1 0 3.5 0 a1.75 1.75 0 1 0 -3.5 0zM425.25 49 a1.75 1.75 0 1 0 3.5 0 a1.75 1.75 0 1 0 -3.5 0z" fill="black"></path><path d="M1139.25 35 a1.75 1.75 0 1 0 3.5 0 a1.75 1.75 0 1 0 -3.5 0zM1139.25 7 a1.75 1.75 0 1 0 3.5 0 a1.75 1.75 0 1 0 -3.5 0z" fill="black"></path><path d="M1713.25 63 a1.75 1.75 0 1 0 3.5 0 a1.75 1.75 0 1 0 -3.5 0zM1685.25 21 a1.75 1.75 0 1 0 3.5 0 a1.75 1.75 0 1 0 -3.5 0z" fill="black"></path><path d="M1405.25 63 a1.75 1.75 0 1 0 3.5 0 a1.75 1.75 0 1 0 -3.5 0zM1349.25 105 a1.75 1.75 0 1 0 3.5 0 a1.75 1.75 0 1 0 -3.5 0z" fill="black"></path><path d="M1293.25 63 a1.75 1.75 0 1 0 3.5 0 a1.75 1.75 0 1 0 -3.5 0zM1321.25 91 a1.75 1.75 0 1 0 3.5 0 a1.75 1.75 0 1 0 -3.5 0z" fill="black"></path><path d="M1055.25 35 a1.75 1.75 0 1 0 3.5 0 a1.75 1.75 0 1 0 -3.5 0zM1055.25 63 a1.75 1.75 0 1 0 3.5 0 a1.75 1.75 0 1 0 -3.5 0z" fill="black"></path><path d="M1097.25 21 a1.75 1.75 0 1 0 3.5 0 a1.75 1.75 0 1 0 -3.5 0zM1069.25 63 a1.75 1.75 0 1 0 3.5 0 a1.75 1.75 0 1 0 -3.5 0z" fill="black"></path><path d="M1685.25 77 a1.75 1.75 0 1 0 3.5 0 a1.75 1.75 0 1 0 -3.5 0zM1685.25 49 a1.75 1.75 0 1 0 3.5 0 a1.75 1.75 0 1 0 -3.5 0z" fill="black"></path><path d="M1013.25 7 a1.75 1.75 0 1 0 3.5 0 a1.75 1.75 0 1 0 -3.5 0zM1111.25 7 a1.75 1.75 0 1 0 3.5 0 a1.75 1.75 0 1 0 -3.5 0z" fill="black"></path><path d="M761.25 21 a1.75 1.75 0 1 0 3.5 0 a1.75 1.75 0 1 0 -3.5 0zM775.25 77 a1.75 1.75 0 1 0 3.5 0 a1.75 1.75 0 1 0 -3.5 0z" fill="black"></path><path d="M187.25 49 a1.75 1.75 0 1 0 3.5 0 a1.75 1.75 0 1 0 -3.5 0zM173.25 105 a1.75 1.75 0 1 0 3.5 0 a1.75 1.75 0 1 0 -3.5 0z" fill="black"></path><path d="M663.25 7 a1.75 1.75 0 1 0 3.5 0 a1.75 1.75 0 1 0 -3.5 0zM719.25 63 a1.75 1.75 0 1 0 3.5 0 a1.75 1.75 0 1 0 -3.5 0z" fill="black"></path><path d="M887.25 35 a1.75 1.75 0 1 0 3.5 0 a1.75 1.75 0 1 0 -3.5 0zM929.25 21 a1.75 1.75 0 1 0 3.5 0 a1.75 1.75 0 1 0 -3.5 0z" fill="black"></path><path d="M1153.25 7 a1.75 1.75 0 1 0 3.5 0 a1.75 1.75 0 1 0 -3.5 0zM1153.25 91 a1.75 1.75 0 1 0 3.5 0 a1.75 1.75 0 1 0 -3.5 0z" fill="black"></path><path d="M1811.25 21 a1.75 1.75 0 1 0 3.5 0 a1.75 1.75 0 1 0 -3.5 0zM1755.25 49 a1.75 1.75 0 1 0 3.5 0 a1.75 1.75 0 1 0 -3.5 0z" fill="black"></path><path d="M565.25 119 a1.75 1.75 0 1 0 3.5 0 a1.75 1.75 0 1 0 -3.5 0zM649.25 119 a1.75 1.75 0 1 0 3.5 0 a1.75 1.75 0 1 0 -3.5 0z" fill="black"></path><path d="M1447.25 91 a1.75 1.75 0 1 0 3.5 0 a1.75 1.75 0 1 0 -3.5 0zM1391.25 105 a1.75 1.75 0 1 0 3.5 0 a1.75 1.75 0 1 0 -3.5 0z" fill="black"></path><path d="M187.25 77 a1.75 1.75 0 1 0 3.5 0 a1.75 1.75 0 1 0 -3.5 0zM229.25 35 a1.75 1.75 0 1 0 3.5 0 a1.75 1.75 0 1 0 -3.5 0z" fill="black"></path><path d="M901.25 119 a1.75 1.75 0 1 0 3.5 0 a1.75 1.75 0 1 0 -3.5 0zM1013.25 91 a1.75 1.75 0 1 0 3.5 0 a1.75 1.75 0 1 0 -3.5 0z" fill="black"></path><path d="M607.25 63 a1.75 1.75 0 1 0 3.5 0 a1.75 1.75 0 1 0 -3.5 0zM579.25 105 a1.75 1.75 0 1 0 3.5 0 a1.75 1.75 0 1 0 -3.5 0z" fill="black"></path><path d="M481.25 63 a1.75 1.75 0 1 0 3.5 0 a1.75 1.75 0 1 0 -3.5 0zM453.25 49 a1.75 1.75 0 1 0 3.5 0 a1.75 1.75 0 1 0 -3.5 0z" fill="black"></path><path d="M635.25 77 a1.75 1.75 0 1 0 3.5 0 a1.75 1.75 0 1 0 -3.5 0zM593.25 105 a1.75 1.75 0 1 0 3.5 0 a1.75 1.75 0 1 0 -3.5 0z" fill="black"></path><path d="M663.25 77 a1.75 1.75 0 1 0 3.5 0 a1.75 1.75 0 1 0 -3.5 0zM691.25 91 a1.75 1.75 0 1 0 3.5 0 a1.75 1.75 0 1 0 -3.5 0z" fill="black"></path><path d="M705.25 35 a1.75 1.75 0 1 0 3.5 0 a1.75 1.75 0 1 0 -3.5 0zM677.25 7 a1.75 1.75 0 1 0 3.5 0 a1.75 1.75 0 1 0 -3.5 0z" fill="black"></path><path d="M1461.25 105 a1.75 1.75 0 1 0 3.5 0 a1.75 1.75 0 1 0 -3.5 0zM1419.25 91 a1.75 1.75 0 1 0 3.5 0 a1.75 1.75 0 1 0 -3.5 0z" fill="black"></path><path d="M1811.25 105 a1.75 1.75 0 1 0 3.5 0 a1.75 1.75 0 1 0 -3.5 0zM1741.25 105 a1.75 1.75 0 1 0 3.5 0 a1.75 1.75 0 1 0 -3.5 0z" fill="black"></path><path d="M719.25 35 a1.75 1.75 0 1 0 3.5 0 a1.75 1.75 0 1 0 -3.5 0zM775.25 7 a1.75 1.75 0 1 0 3.5 0 a1.75 1.75 0 1 0 -3.5 0z" fill="black"></path><path d="M1601.25 7 a1.75 1.75 0 1 0 3.5 0 a1.75 1.75 0 1 0 -3.5 0zM1671.25 7 a1.75 1.75 0 1 0 3.5 0 a1.75 1.75 0 1 0 -3.5 0z" fill="black"></path><path d="M1531.25 21 a1.75 1.75 0 1 0 3.5 0 a1.75 1.75 0 1 0 -3.5 0zM1503.25 7 a1.75 1.75 0 1 0 3.5 0 a1.75 1.75 0 1 0 -3.5 0z" fill="black"></path><path d="M1181.25 35 a1.75 1.75 0 1 0 3.5 0 a1.75 1.75 0 1 0 -3.5 0zM1167.25 77 a1.75 1.75 0 1 0 3.5 0 a1.75 1.75 0 1 0 -3.5 0z" fill="black"></path><path d="M537.25 7 a1.75 1.75 0 1 0 3.5 0 a1.75 1.75 0 1 0 -3.5 0zM565.25 35 a1.75 1.75 0 1 0 3.5 0 a1.75 1.75 0 1 0 -3.5 0z" fill="black"></path><path d="M1769.25 91 a1.75 1.75 0 1 0 3.5 0 a1.75 1.75 0 1 0 -3.5 0zM1811.25 91 a1.75 1.75 0 1 0 3.5 0 a1.75 1.75 0 1 0 -3.5 0z" fill="black"></path><path d="M299.25 105 a1.75 1.75 0 1 0 3.5 0 a1.75 1.75 0 1 0 -3.5 0zM355.25 91 a1.75 1.75 0 1 0 3.5 0 a1.75 1.75 0 1 0 -3.5 0z" fill="black"></path><path d="M1503.25 77 a1.75 1.75 0 1 0 3.5 0 a1.75 1.75 0 1 0 -3.5 0zM1489.25 49 a1.75 1.75 0 1 0 3.5 0 a1.75 1.75 0 1 0 -3.5 0z" fill="black"></path><path d="M117.25 105 a1.75 1.75 0 1 0 3.5 0 a1.75 1.75 0 1 0 -3.5 0zM89.25 119 a1.75 1.75 0 1 0 3.5 0 a1.75 1.75 0 1 0 -3.5 0z" fill="black"></path><path d="M1573.25 7 a1.75 1.75 0 1 0 3.5 0 a1.75 1.75 0 1 0 -3.5 0zM1601.25 21 a1.75 1.75 0 1 0 3.5 0 a1.75 1.75 0 1 0 -3.5 0z" fill="black"></path><path d="M915.25 105 a1.75 1.75 0 1 0 3.5 0 a1.75 1.75 0 1 0 -3.5 0zM999.25 91 a1.75 1.75 0 1 0 3.5 0 a1.75 1.75 0 1 0 -3.5 0z" fill="black"></path><path d="M1713.25 7 a1.75 1.75 0 1 0 3.5 0 a1.75 1.75 0 1 0 -3.5 0zM1755.25 7 a1.75 1.75 0 1 0 3.5 0 a1.75 1.75 0 1 0 -3.5 0z" fill="black"></path><path d="M915.25 91 a1.75 1.75 0 1 0 3.5 0 a1.75 1.75 0 1 0 -3.5 0zM873.25 119 a1.75 1.75 0 1 0 3.5 0 a1.75 1.75 0 1 0 -3.5 0z" fill="black"></path><path d="M1069.25 119 a1.75 1.75 0 1 0 3.5 0 a1.75 1.75 0 1 0 -3.5 0zM1041.25 119 a1.75 1.75 0 1 0 3.5 0 a1.75 1.75 0 1 0 -3.5 0z" fill="black"></path><path d="M201.25 7 a1.75 1.75 0 1 0 3.5 0 a1.75 1.75 0 1 0 -3.5 0zM173.25 7 a1.75 1.75 0 1 0 3.5 0 a1.75 1.75 0 1 0 -3.5 0z" fill="black"></path><path d="M383.25 91 a1.75 1.75 0 1 0 3.5 0 a1.75 1.75 0 1 0 -3.5 0zM411.25 91 a1.75 1.75 0 1 0 3.5 0 a1.75 1.75 0 1 0 -3.5 0z" fill="black"></path><path d="M1055.25 21 a1.75 1.75 0 1 0 3.5 0 a1.75 1.75 0 1 0 -3.5 0zM1013.25 63 a1.75 1.75 0 1 0 3.5 0 a1.75 1.75 0 1 0 -3.5 0z" fill="black"></path><path d="M1307.25 91 a1.75 1.75 0 1 0 3.5 0 a1.75 1.75 0 1 0 -3.5 0zM1279.25 91 a1.75 1.75 0 1 0 3.5 0 a1.75 1.75 0 1 0 -3.5 0z" fill="black"></path><path d="M1727.25 21 a1.75 1.75 0 1 0 3.5 0 a1.75 1.75 0 1 0 -3.5 0zM1699.25 21 a1.75 1.75 0 1 0 3.5 0 a1.75 1.75 0 1 0 -3.5 0z" fill="black"></path><path d="M1097.25 35 a1.75 1.75 0 1 0 3.5 0 a1.75 1.75 0 1 0 -3.5 0zM1083.25 63 a1.75 1.75 0 1 0 3.5 0 a1.75 1.75 0 1 0 -3.5 0z" fill="black"></path><path d="M299.25 49 a1.75 1.75 0 1 0 3.5 0 a1.75 1.75 0 1 0 -3.5 0zM341.25 63 a1.75 1.75 0 1 0 3.5 0 a1.75 1.75 0 1 0 -3.5 0z" fill="black"></path><path d="M1111.25 49 a1.75 1.75 0 1 0 3.5 0 a1.75 1.75 0 1 0 -3.5 0zM1125.25 21 a1.75 1.75 0 1 0 3.5 0 a1.75 1.75 0 1 0 -3.5 0z" fill="black"></path><path d="M831.25 49 a1.75 1.75 0 1 0 3.5 0 a1.75 1.75 0 1 0 -3.5 0zM817.25 77 a1.75 1.75 0 1 0 3.5 0 a1.75 1.75 0 1 0 -3.5 0z" fill="black"></path><path d="M733.25 7 a1.75 1.75 0 1 0 3.5 0 a1.75 1.75 0 1 0 -3.5 0zM705.25 7 a1.75 1.75 0 1 0 3.5 0 a1.75 1.75 0 1 0 -3.5 0z" fill="black"></path><path d="M1181.25 7 a1.75 1.75 0 1 0 3.5 0 a1.75 1.75 0 1 0 -3.5 0zM1209.25 7 a1.75 1.75 0 1 0 3.5 0 a1.75 1.75 0 1 0 -3.5 0z" fill="black"></path></mask></defs></svg>